# MagicaVoxel @ Ephtracy

# group
o 

# material
mtllib tank.mtl
usemtl palette

# normals
vn -1 0 0
vn 1 0 0
vn 0 0 1
vn 0 0 -1
vn 0 -1 0
vn 0 1 0

# texcoords
vt 0.345703 0.5
vt 0.376953 0.5

# verts
v -1.6 0 1.2
v -1.6 0 0.8
v -1.6 0 0.6
v -1.6 0 -0.8
v -1.6 0 -1
v -1.6 0 -1.4
v -1.6 0.4 -1.19209e-007
v -1.6 0.4 -0.2
v -1.6 0.6 1.2
v -1.6 0.6 0.8
v -1.6 0.6 0.6
v -1.6 0.6 -1.19209e-007
v -1.6 0.6 -0.2
v -1.6 0.6 -0.8
v -1.6 0.6 -1
v -1.6 0.6 -1.4
v -1.4 0 0.8
v -1.4 0 0.6
v -1.4 0 -0.8
v -1.4 0 -1
v -1.4 0.1 0.8
v -1.4 0.1 -1
v -1.4 0.4 0.8
v -1.4 0.4 0.6
v -1.4 0.4 -0.8
v -1.4 0.4 -1
v -1.2 0.4 0.4
v -1.2 0.4 -0.6
v -1.2 0.6 0.4
v -1.2 0.6 -0.6
v -1 0.4 0.6
v -1 0.4 0.4
v -1 0.4 -0.6
v -1 0.4 -0.8
v -1 0.6 0.6
v -1 0.6 0.4
v -1 0.6 -0.6
v -1 0.6 -0.8
v -1 0.8 0.4
v -1 0.8 0.2
v -1 0.8 -0.4
v -1 0.8 -0.6
v -1 1 0.2
v -1 1 -0.4
v -0.8 0.8 0.4
v -0.8 0.8 0.2
v -0.8 0.8 -0.4
v -0.8 0.8 -0.6
v -0.8 1 0.4
v -0.8 1 0.2
v -0.8 1 -0.4
v -0.8 1 -0.6
v -0.6 0 1.2
v -0.6 0 0.8
v -0.6 0 -1
v -0.6 0 -1.4
v -0.6 0.4 0.8
v -0.6 0.4 -1
v -0.6 0.6 1.2
v -0.6 0.6 0.8
v -0.6 0.6 -1
v -0.6 0.6 -1.4
v 0.4 0 1.2
v 0.4 0 0.8
v 0.4 0 -1
v 0.4 0 -1.4
v 0.4 0.4 0.8
v 0.4 0.4 -1
v 0.4 0.6 1.2
v 0.4 0.6 0.8
v 0.4 0.6 -1
v 0.4 0.6 -1.4
v -1.4 0.4 0.6
v -1.4 0.4 -1.19209e-007
v -1.4 0.4 -0.2
v -1.4 0.4 -0.8
v -1.4 0.6 0.6
v -1.4 0.6 -1.19209e-007
v -1.4 0.6 -0.2
v -1.4 0.6 -0.8
v -1 0 1.2
v -1 0 0.8
v -1 0 -1
v -1 0 -1.4
v -1 0.4 0.8
v -1 0.4 -1
v -1 0.6 1.2
v -1 0.6 0.8
v -1 0.6 -1
v -1 0.6 -1.4
v 0 0 1.2
v 0 0 0.8
v 0 0 -1
v 0 0 -1.4
v 0 0.4 0.8
v 0 0.4 -1
v 0 0.6 1.2
v 0 0.6 0.8
v 0 0.6 -1
v 0 0.6 -1.4
v 0.6 0.4 0.6
v 0.6 0.4 0.4
v 0.6 0.4 -0.6
v 0.6 0.4 -0.8
v 0.6 0.6 0.6
v 0.6 0.6 0.4
v 0.6 0.6 -0.6
v 0.6 0.6 -0.8
v 0.6 0.7 0.4
v 0.6 0.7 0.2
v 0.6 0.7 -0.4
v 0.6 0.7 -0.6
v 0.6 1 0.4
v 0.6 1 0.2
v 0.6 1 -0.4
v 0.6 1 -0.6
v 0.8 0 0.8
v 0.8 0 0.6
v 0.8 0 -0.8
v 0.8 0 -1
v 0.8 0.4 0.8
v 0.8 0.4 0.6
v 0.8 0.4 0.4
v 0.8 0.4 -0.6
v 0.8 0.4 -0.8
v 0.8 0.4 -1
v 0.8 0.6 -1.19209e-007
v 0.8 0.6 -0.2
v 0.8 0.7 0.4
v 0.8 0.7 0.2
v 0.8 0.7 -0.4
v 0.8 0.7 -0.6
v 0.8 0.8 -1.19209e-007
v 0.8 0.8 -0.2
v 0.8 1 0.2
v 0.8 1 -0.4
v 1 0 1.2
v 1 0 0.8
v 1 0 0.6
v 1 0 -0.8
v 1 0 -1
v 1 0 -1.4
v 1 0.4 0.6
v 1 0.4 -0.8
v 1 0.6 1.2
v 1 0.6 0.8
v 1 0.6 -1
v 1 0.6 -1.4
v 1.5 0.6 -1.19209e-007
v 1.5 0.6 -0.2
v 1.5 0.8 -1.19209e-007
v 1.5 0.8 -0.2
v -1.6 0 1.2
v -1.6 0.6 1.2
v -1.4 0.2 1.2
v -1.4 0.4 1.2
v -1.2 0.2 1.2
v -1.2 0.4 1.2
v -1 0 1.2
v -1 0.6 1.2
v -0.6 0 1.2
v -0.6 0.6 1.2
v -0.4 0.2 1.2
v -0.4 0.4 1.2
v -0.2 0.2 1.2
v -0.2 0.4 1.2
v 0 0 1.2
v 0 0.6 1.2
v 0.4 0 1.2
v 0.4 0.6 1.2
v 0.6 0.2 1.2
v 0.6 0.4 1.2
v 0.8 0.2 1.2
v 0.8 0.4 1.2
v 1 0 1.2
v 1 0.6 1.2
v -1 0 0.8
v -1 0.4 0.8
v -0.6 0 0.8
v -0.6 0.4 0.8
v 0 0 0.8
v 0 0.4 0.8
v 0.4 0 0.8
v 0.4 0.4 0.8
v -1.6 0 0.6
v -1.6 0.6 0.6
v -1.4 0 0.6
v -1.4 0.4 0.6
v -1.4 0.6 0.6
v -1 0.4 0.6
v -1 0.6 0.6
v 0.6 0.4 0.6
v 0.6 0.6 0.6
v 0.8 0 0.6
v 0.8 0.4 0.6
v 1 0 0.6
v 1 0.4 0.6
v -1.2 0.4 0.4
v -1.2 0.6 0.4
v -1 0.4 0.4
v -1 0.6 0.4
v -1 0.8 0.4
v -0.8 0.8 0.4
v -0.8 1 0.4
v 0.6 0.4 0.4
v 0.6 0.6 0.4
v 0.6 0.7 0.4
v 0.6 1 0.4
v 0.8 0.4 0.4
v 0.8 0.7 0.4
v -1 0.8 0.2
v -1 1 0.2
v -0.8 0.8 0.2
v -0.8 1 0.2
v 0.6 0.7 0.2
v 0.6 1 0.2
v 0.8 0.7 0.2
v 0.8 1 0.2
v 0.8 0.6 -1.19209e-007
v 0.8 0.8 -1.19209e-007
v 1.5 0.6 -1.19209e-007
v 1.5 0.8 -1.19209e-007
v -1.6 0.4 -0.2
v -1.6 0.6 -0.2
v -1.4 0.4 -0.2
v -1.4 0.6 -0.2
v -1.6 0 -1
v -1.6 0.6 -1
v -1.5 0.1 -1
v -1.5 0.5 -1
v -1.4 0 -1
v -1.4 0.1 -1
v -1.4 0.4 -1
v -1.1 0.4 -1
v -1.1 0.5 -1
v -1 0.4 -1
v -1 0.6 -1
v -0.6 0.4 -1
v -0.6 0.6 -1
v 0 0.4 -1
v 0 0.6 -1
v 0.4 0.4 -1
v 0.4 0.6 -1
v 0.8 0 -1
v 0.8 0.4 -1
v 1 0 -1
v 1 0.6 -1
v -1.6 0 0.8
v -1.6 0.6 0.8
v -1.5 0.1 0.8
v -1.5 0.5 0.8
v -1.4 0 0.8
v -1.4 0.1 0.8
v -1.4 0.4 0.8
v -1.1 0.4 0.8
v -1.1 0.5 0.8
v -1 0.4 0.8
v -1 0.6 0.8
v -0.6 0.4 0.8
v -0.6 0.6 0.8
v 0 0.4 0.8
v 0 0.6 0.8
v 0.4 0.4 0.8
v 0.4 0.6 0.8
v 0.8 0 0.8
v 0.8 0.4 0.8
v 1 0 0.8
v 1 0.6 0.8
v -1.6 0.4 -1.19209e-007
v -1.6 0.6 -1.19209e-007
v -1.4 0.4 -1.19209e-007
v -1.4 0.6 -1.19209e-007
v 0.8 0.6 -0.2
v 0.8 0.8 -0.2
v 1.5 0.6 -0.2
v 1.5 0.8 -0.2
v -1 0.8 -0.4
v -1 1 -0.4
v -0.8 0.8 -0.4
v -0.8 1 -0.4
v 0.6 0.7 -0.4
v 0.6 1 -0.4
v 0.8 0.7 -0.4
v 0.8 1 -0.4
v -1.2 0.4 -0.6
v -1.2 0.6 -0.6
v -1 0.4 -0.6
v -1 0.6 -0.6
v -1 0.8 -0.6
v -0.8 0.8 -0.6
v -0.8 1 -0.6
v 0.6 0.4 -0.6
v 0.6 0.6 -0.6
v 0.6 0.7 -0.6
v 0.6 1 -0.6
v 0.8 0.4 -0.6
v 0.8 0.7 -0.6
v -1.6 0 -0.8
v -1.6 0.6 -0.8
v -1.4 0 -0.8
v -1.4 0.4 -0.8
v -1.4 0.6 -0.8
v -1 0.4 -0.8
v -1 0.6 -0.8
v 0.6 0.4 -0.8
v 0.6 0.6 -0.8
v 0.8 0 -0.8
v 0.8 0.4 -0.8
v 1 0 -0.8
v 1 0.4 -0.8
v -1 0 -1
v -1 0.4 -1
v -0.6 0 -1
v -0.6 0.4 -1
v 0 0 -1
v 0 0.4 -1
v 0.4 0 -1
v 0.4 0.4 -1
v -1.6 0 -1.4
v -1.6 0.6 -1.4
v -1.4 0.2 -1.4
v -1.4 0.4 -1.4
v -1.2 0.2 -1.4
v -1.2 0.4 -1.4
v -1 0 -1.4
v -1 0.6 -1.4
v -0.6 0 -1.4
v -0.6 0.6 -1.4
v -0.4 0.2 -1.4
v -0.4 0.4 -1.4
v -0.2 0.2 -1.4
v -0.2 0.4 -1.4
v 0 0 -1.4
v 0 0.6 -1.4
v 0.4 0 -1.4
v 0.4 0.6 -1.4
v 0.6 0.2 -1.4
v 0.6 0.4 -1.4
v 0.8 0.2 -1.4
v 0.8 0.4 -1.4
v 1 0 -1.4
v 1 0.6 -1.4
v -1.6 0 1.2
v -1 0 1.2
v -0.6 0 1.2
v 0 0 1.2
v 0.4 0 1.2
v 1 0 1.2
v -1.6 0 0.8
v -1.4 0 0.8
v -1 0 0.8
v -0.6 0 0.8
v 0 0 0.8
v 0.4 0 0.8
v 0.8 0 0.8
v 1 0 0.8
v -1.6 0 0.6
v -1.4 0 0.6
v 0.8 0 0.6
v 1 0 0.6
v -1.6 0 -0.8
v -1.4 0 -0.8
v 0.8 0 -0.8
v 1 0 -0.8
v -1.6 0 -1
v -1.4 0 -1
v -1 0 -1
v -0.6 0 -1
v 0 0 -1
v 0.4 0 -1
v 0.8 0 -1
v 1 0 -1
v -1.6 0 -1.4
v -1 0 -1.4
v -0.6 0 -1.4
v 0 0 -1.4
v 0.4 0 -1.4
v 1 0 -1.4
v 0.8 0.6 -1.19209e-007
v 1.5 0.6 -1.19209e-007
v 0.8 0.6 -0.2
v 1.5 0.6 -0.2
v -1.4 0.4 0.8
v -1.1 0.4 0.8
v -1 0.4 0.8
v -0.6 0.4 0.8
v 0 0.4 0.8
v 0.4 0.4 0.8
v 0.8 0.4 0.8
v -1.4 0.4 0.6
v -1 0.4 0.6
v 0.6 0.4 0.6
v 0.8 0.4 0.6
v 1 0.4 0.6
v -1.2 0.4 0.4
v -1 0.4 0.4
v 0.6 0.4 0.4
v 0.8 0.4 0.4
v -1.6 0.4 -1.19209e-007
v -1.4 0.4 -1.19209e-007
v -1.6 0.4 -0.2
v -1.4 0.4 -0.2
v -1.2 0.4 -0.6
v -1 0.4 -0.6
v 0.6 0.4 -0.6
v 0.8 0.4 -0.6
v -1.4 0.4 -0.8
v -1 0.4 -0.8
v 0.6 0.4 -0.8
v 0.8 0.4 -0.8
v 1 0.4 -0.8
v -1.4 0.4 -1
v -1.1 0.4 -1
v -1 0.4 -1
v -0.6 0.4 -1
v 0 0.4 -1
v 0.4 0.4 -1
v 0.8 0.4 -1
v -1.6 0.6 1.2
v -1 0.6 1.2
v -0.6 0.6 1.2
v 0 0.6 1.2
v 0.4 0.6 1.2
v 1 0.6 1.2
v -1.6 0.6 0.8
v -1 0.6 0.8
v -0.6 0.6 0.8
v 0 0.6 0.8
v 0.4 0.6 0.8
v 1 0.6 0.8
v -1.6 0.6 0.6
v -1.4 0.6 0.6
v -1 0.6 0.6
v 0.6 0.6 0.6
v -1.2 0.6 0.4
v -1 0.6 0.4
v 0.6 0.6 0.4
v -1.6 0.6 -1.19209e-007
v -1.4 0.6 -1.19209e-007
v -1.6 0.6 -0.2
v -1.4 0.6 -0.2
v -1.2 0.6 -0.6
v -1 0.6 -0.6
v 0.6 0.6 -0.6
v -1.6 0.6 -0.8
v -1.4 0.6 -0.8
v -1 0.6 -0.8
v 0.6 0.6 -0.8
v -1.6 0.6 -1
v -1 0.6 -1
v -0.6 0.6 -1
v 0 0.6 -1
v 0.4 0.6 -1
v 1 0.6 -1
v -1.6 0.6 -1.4
v -1 0.6 -1.4
v -0.6 0.6 -1.4
v 0 0.6 -1.4
v 0.4 0.6 -1.4
v 1 0.6 -1.4
v 0.6 0.7 0.4
v 0.8 0.7 0.4
v 0.6 0.7 0.2
v 0.8 0.7 0.2
v 0.6 0.7 -0.4
v 0.8 0.7 -0.4
v 0.6 0.7 -0.6
v 0.8 0.7 -0.6
v -1 0.8 0.4
v -0.8 0.8 0.4
v -1 0.8 0.2
v -0.8 0.8 0.2
v 0.8 0.8 -1.19209e-007
v 1.5 0.8 -1.19209e-007
v 0.8 0.8 -0.2
v 1.5 0.8 -0.2
v -1 0.8 -0.4
v -0.8 0.8 -0.4
v -1 0.8 -0.6
v -0.8 0.8 -0.6
v -0.8 1 0.4
v 0.6 1 0.4
v -1 1 0.2
v -0.8 1 0.2
v 0.6 1 0.2
v 0.8 1 0.2
v -1 1 -0.4
v -0.8 1 -0.4
v 0.6 1 -0.4
v 0.8 1 -0.4
v -0.8 1 -0.6
v 0.6 1 -0.6

# faces
f 7/2/1 4/2/1 3/2/1
f 8/2/1 4/2/1 7/2/1
f 9/1/1 2/1/1 1/1/1
f 10/1/1 2/1/1 9/1/1
f 11/2/1 7/2/1 3/2/1
f 12/2/1 7/2/1 11/2/1
f 13/2/1 4/2/1 8/2/1
f 14/2/1 4/2/1 13/2/1
f 15/1/1 6/1/1 5/1/1
f 16/1/1 6/1/1 15/1/1
f 21/2/1 18/2/1 17/2/1
f 22/2/1 20/2/1 19/2/1
f 23/2/1 18/2/1 21/2/1
f 24/2/1 18/2/1 23/2/1
f 25/2/1 22/2/1 19/2/1
f 26/2/1 22/2/1 25/2/1
f 29/2/1 28/2/1 27/2/1
f 30/2/1 28/2/1 29/2/1
f 35/2/1 32/2/1 31/2/1
f 36/2/1 32/2/1 35/2/1
f 37/2/1 34/2/1 33/2/1
f 38/2/1 34/2/1 37/2/1
f 39/2/1 37/2/1 36/2/1
f 40/2/1 37/2/1 39/2/1
f 41/2/1 37/2/1 40/2/1
f 42/2/1 37/2/1 41/2/1
f 43/2/1 41/2/1 40/2/1
f 44/2/1 41/2/1 43/2/1
f 49/2/1 46/2/1 45/2/1
f 50/2/1 46/2/1 49/2/1
f 51/2/1 48/2/1 47/2/1
f 52/2/1 48/2/1 51/2/1
f 57/1/1 54/1/1 53/1/1
f 58/1/1 56/1/1 55/1/1
f 59/1/1 57/1/1 53/1/1
f 60/1/1 57/1/1 59/1/1
f 61/1/1 56/1/1 58/1/1
f 62/1/1 56/1/1 61/1/1
f 67/1/1 64/1/1 63/1/1
f 68/1/1 66/1/1 65/1/1
f 69/1/1 67/1/1 63/1/1
f 70/1/1 67/1/1 69/1/1
f 71/1/1 66/1/1 68/1/1
f 72/1/1 66/1/1 71/1/1
f 73/2/2 74/2/2 77/2/2
f 77/2/2 74/2/2 78/2/2
f 75/2/2 76/2/2 79/2/2
f 79/2/2 76/2/2 80/2/2
f 81/1/2 82/1/2 85/1/2
f 83/1/2 84/1/2 86/1/2
f 81/1/2 85/1/2 87/1/2
f 87/1/2 85/1/2 88/1/2
f 86/1/2 84/1/2 89/1/2
f 89/1/2 84/1/2 90/1/2
f 91/1/2 92/1/2 95/1/2
f 93/1/2 94/1/2 96/1/2
f 91/1/2 95/1/2 97/1/2
f 97/1/2 95/1/2 98/1/2
f 96/1/2 94/1/2 99/1/2
f 99/1/2 94/1/2 100/1/2
f 101/2/2 102/2/2 105/2/2
f 105/2/2 102/2/2 106/2/2
f 103/2/2 104/2/2 107/2/2
f 107/2/2 104/2/2 108/2/2
f 109/2/2 110/2/2 113/2/2
f 113/2/2 110/2/2 114/2/2
f 111/2/2 112/2/2 115/2/2
f 115/2/2 112/2/2 116/2/2
f 117/2/2 118/2/2 121/2/2
f 121/2/2 118/2/2 122/2/2
f 119/2/2 120/2/2 125/2/2
f 125/2/2 120/2/2 126/2/2
f 123/2/2 124/2/2 127/2/2
f 127/2/2 124/2/2 128/2/2
f 123/2/2 127/2/2 129/2/2
f 129/2/2 127/2/2 130/2/2
f 128/2/2 124/2/2 131/2/2
f 131/2/2 124/2/2 132/2/2
f 130/2/2 127/2/2 133/2/2
f 128/2/2 131/2/2 134/2/2
f 130/2/2 133/2/2 135/2/2
f 133/2/2 134/2/2 135/2/2
f 134/2/2 131/2/2 136/2/2
f 135/2/2 134/2/2 136/2/2
f 139/2/2 140/2/2 143/2/2
f 143/2/2 140/2/2 144/2/2
f 137/1/2 138/1/2 145/1/2
f 145/1/2 138/1/2 146/1/2
f 141/1/2 142/1/2 147/1/2
f 147/1/2 142/1/2 148/1/2
f 149/2/2 150/2/2 151/2/2
f 151/2/2 150/2/2 152/2/2
f 155/1/3 154/1/3 153/1/3
f 156/1/3 154/1/3 155/1/3
f 157/1/3 155/1/3 153/1/3
f 157/2/3 156/2/3 155/2/3
f 158/1/3 154/1/3 156/1/3
f 158/2/3 156/2/3 157/2/3
f 159/1/3 157/1/3 153/1/3
f 159/1/3 158/1/3 157/1/3
f 160/1/3 154/1/3 158/1/3
f 160/1/3 158/1/3 159/1/3
f 163/1/3 162/1/3 161/1/3
f 164/1/3 162/1/3 163/1/3
f 165/1/3 163/1/3 161/1/3
f 165/2/3 164/2/3 163/2/3
f 166/1/3 162/1/3 164/1/3
f 166/2/3 164/2/3 165/2/3
f 167/1/3 165/1/3 161/1/3
f 167/1/3 166/1/3 165/1/3
f 168/1/3 162/1/3 166/1/3
f 168/1/3 166/1/3 167/1/3
f 171/1/3 170/1/3 169/1/3
f 172/1/3 170/1/3 171/1/3
f 173/1/3 171/1/3 169/1/3
f 173/2/3 172/2/3 171/2/3
f 174/1/3 170/1/3 172/1/3
f 174/2/3 172/2/3 173/2/3
f 175/1/3 173/1/3 169/1/3
f 175/1/3 174/1/3 173/1/3
f 176/1/3 170/1/3 174/1/3
f 176/1/3 174/1/3 175/1/3
f 179/2/3 178/2/3 177/2/3
f 180/2/3 178/2/3 179/2/3
f 183/2/3 182/2/3 181/2/3
f 184/2/3 182/2/3 183/2/3
f 187/2/3 186/2/3 185/2/3
f 188/2/3 186/2/3 187/2/3
f 189/2/3 186/2/3 188/2/3
f 192/2/3 191/2/3 190/2/3
f 193/2/3 191/2/3 192/2/3
f 196/2/3 195/2/3 194/2/3
f 197/2/3 195/2/3 196/2/3
f 200/2/3 199/2/3 198/2/3
f 201/2/3 199/2/3 200/2/3
f 203/2/3 202/2/3 201/2/3
f 206/2/3 203/2/3 201/2/3
f 206/2/3 204/2/3 203/2/3
f 207/2/3 204/2/3 206/2/3
f 208/2/3 204/2/3 207/2/3
f 209/2/3 206/2/3 205/2/3
f 209/2/3 207/2/3 206/2/3
f 210/2/3 207/2/3 209/2/3
f 213/2/3 212/2/3 211/2/3
f 214/2/3 212/2/3 213/2/3
f 217/2/3 216/2/3 215/2/3
f 218/2/3 216/2/3 217/2/3
f 221/2/3 220/2/3 219/2/3
f 222/2/3 220/2/3 221/2/3
f 225/2/3 224/2/3 223/2/3
f 226/2/3 224/2/3 225/2/3
f 229/1/3 228/1/3 227/1/3
f 230/1/3 228/1/3 229/1/3
f 231/1/3 229/1/3 227/1/3
f 232/2/3 230/2/3 229/2/3
f 232/1/3 229/1/3 231/1/3
f 233/2/3 230/2/3 232/2/3
f 234/2/3 230/2/3 233/2/3
f 235/1/3 228/1/3 230/1/3
f 235/2/3 230/2/3 234/2/3
f 236/1/3 235/1/3 234/1/3
f 237/1/3 228/1/3 235/1/3
f 237/1/3 235/1/3 236/1/3
f 240/1/3 239/1/3 238/1/3
f 241/1/3 239/1/3 240/1/3
f 245/1/3 243/1/3 242/1/3
f 246/1/3 245/1/3 244/1/3
f 247/1/3 243/1/3 245/1/3
f 247/1/3 245/1/3 246/1/3
f 248/1/4 249/1/4 250/1/4
f 250/1/4 249/1/4 251/1/4
f 248/1/4 250/1/4 252/1/4
f 250/2/4 251/2/4 253/2/4
f 252/1/4 250/1/4 253/1/4
f 253/2/4 251/2/4 254/2/4
f 254/2/4 251/2/4 255/2/4
f 251/1/4 249/1/4 256/1/4
f 255/2/4 251/2/4 256/2/4
f 255/1/4 256/1/4 257/1/4
f 256/1/4 249/1/4 258/1/4
f 257/1/4 256/1/4 258/1/4
f 259/1/4 260/1/4 261/1/4
f 261/1/4 260/1/4 262/1/4
f 263/1/4 264/1/4 266/1/4
f 265/1/4 266/1/4 267/1/4
f 266/1/4 264/1/4 268/1/4
f 267/1/4 266/1/4 268/1/4
f 269/2/4 270/2/4 271/2/4
f 271/2/4 270/2/4 272/2/4
f 273/2/4 274/2/4 275/2/4
f 275/2/4 274/2/4 276/2/4
f 277/2/4 278/2/4 279/2/4
f 279/2/4 278/2/4 280/2/4
f 281/2/4 282/2/4 283/2/4
f 283/2/4 282/2/4 284/2/4
f 285/2/4 286/2/4 287/2/4
f 287/2/4 286/2/4 288/2/4
f 288/2/4 289/2/4 290/2/4
f 288/2/4 290/2/4 293/2/4
f 290/2/4 291/2/4 293/2/4
f 293/2/4 291/2/4 294/2/4
f 294/2/4 291/2/4 295/2/4
f 292/2/4 293/2/4 296/2/4
f 293/2/4 294/2/4 296/2/4
f 296/2/4 294/2/4 297/2/4
f 298/2/4 299/2/4 300/2/4
f 300/2/4 299/2/4 301/2/4
f 301/2/4 299/2/4 302/2/4
f 303/2/4 304/2/4 305/2/4
f 305/2/4 304/2/4 306/2/4
f 307/2/4 308/2/4 309/2/4
f 309/2/4 308/2/4 310/2/4
f 311/2/4 312/2/4 313/2/4
f 313/2/4 312/2/4 314/2/4
f 315/2/4 316/2/4 317/2/4
f 317/2/4 316/2/4 318/2/4
f 319/1/4 320/1/4 321/1/4
f 321/1/4 320/1/4 322/1/4
f 319/1/4 321/1/4 323/1/4
f 321/2/4 322/2/4 323/2/4
f 322/1/4 320/1/4 324/1/4
f 323/2/4 322/2/4 324/2/4
f 319/1/4 323/1/4 325/1/4
f 323/1/4 324/1/4 325/1/4
f 324/1/4 320/1/4 326/1/4
f 325/1/4 324/1/4 326/1/4
f 327/1/4 328/1/4 329/1/4
f 329/1/4 328/1/4 330/1/4
f 327/1/4 329/1/4 331/1/4
f 329/2/4 330/2/4 331/2/4
f 330/1/4 328/1/4 332/1/4
f 331/2/4 330/2/4 332/2/4
f 327/1/4 331/1/4 333/1/4
f 331/1/4 332/1/4 333/1/4
f 332/1/4 328/1/4 334/1/4
f 333/1/4 332/1/4 334/1/4
f 335/1/4 336/1/4 337/1/4
f 337/1/4 336/1/4 338/1/4
f 335/1/4 337/1/4 339/1/4
f 337/2/4 338/2/4 339/2/4
f 338/1/4 336/1/4 340/1/4
f 339/2/4 338/2/4 340/2/4
f 335/1/4 339/1/4 341/1/4
f 339/1/4 340/1/4 341/1/4
f 340/1/4 336/1/4 342/1/4
f 341/1/4 340/1/4 342/1/4
f 349/1/5 344/1/5 343/1/5
f 350/1/5 344/1/5 349/1/5
f 351/1/5 344/1/5 350/1/5
f 352/1/5 346/1/5 345/1/5
f 353/1/5 346/1/5 352/1/5
f 354/1/5 348/1/5 347/1/5
f 355/1/5 348/1/5 354/1/5
f 356/1/5 348/1/5 355/1/5
f 358/2/5 353/2/5 352/2/5
f 358/2/5 355/2/5 354/2/5
f 358/2/5 354/2/5 353/2/5
f 358/2/5 351/2/5 350/2/5
f 358/2/5 352/2/5 351/2/5
f 359/2/5 355/2/5 358/2/5
f 361/2/5 358/2/5 357/2/5
f 361/2/5 360/2/5 359/2/5
f 361/2/5 359/2/5 358/2/5
f 362/2/5 360/2/5 361/2/5
f 363/2/5 360/2/5 362/2/5
f 364/2/5 360/2/5 363/2/5
f 366/2/5 363/2/5 362/2/5
f 367/2/5 363/2/5 366/2/5
f 368/2/5 363/2/5 367/2/5
f 369/2/5 363/2/5 368/2/5
f 370/2/5 363/2/5 369/2/5
f 371/2/5 363/2/5 370/2/5
f 373/1/5 366/1/5 365/1/5
f 373/1/5 367/1/5 366/1/5
f 374/1/5 367/1/5 373/1/5
f 375/1/5 369/1/5 368/1/5
f 376/1/5 369/1/5 375/1/5
f 377/1/5 372/1/5 371/1/5
f 377/1/5 371/1/5 370/1/5
f 378/1/5 372/1/5 377/1/5
f 381/2/5 380/2/5 379/2/5
f 382/2/5 380/2/5 381/2/5
f 383/2/6 384/2/6 390/2/6
f 388/2/6 389/2/6 390/2/6
f 387/2/6 388/2/6 390/2/6
f 386/2/6 387/2/6 390/2/6
f 385/2/6 386/2/6 390/2/6
f 384/2/6 385/2/6 390/2/6
f 390/2/6 389/2/6 391/2/6
f 391/2/6 389/2/6 392/2/6
f 392/2/6 389/2/6 393/2/6
f 390/2/6 391/2/6 395/2/6
f 395/2/6 391/2/6 396/2/6
f 393/2/6 394/2/6 397/2/6
f 392/2/6 393/2/6 397/2/6
f 397/2/6 394/2/6 398/2/6
f 390/2/6 395/2/6 400/2/6
f 399/2/6 400/2/6 401/2/6
f 400/2/6 395/2/6 402/2/6
f 401/2/6 400/2/6 402/2/6
f 402/2/6 395/2/6 403/2/6
f 398/2/6 394/2/6 406/2/6
f 403/2/6 404/2/6 407/2/6
f 402/2/6 403/2/6 407/2/6
f 407/2/6 404/2/6 408/2/6
f 405/2/6 406/2/6 409/2/6
f 406/2/6 394/2/6 410/2/6
f 409/2/6 406/2/6 410/2/6
f 410/2/6 394/2/6 411/2/6
f 407/2/6 408/2/6 412/2/6
f 408/2/6 409/2/6 412/2/6
f 409/2/6 410/2/6 412/2/6
f 412/2/6 410/2/6 413/2/6
f 413/2/6 410/2/6 414/2/6
f 414/2/6 410/2/6 415/2/6
f 415/2/6 410/2/6 416/2/6
f 416/2/6 410/2/6 417/2/6
f 417/2/6 410/2/6 418/2/6
f 419/1/6 420/1/6 425/1/6
f 425/1/6 420/1/6 426/1/6
f 421/1/6 422/1/6 427/1/6
f 427/1/6 422/1/6 428/1/6
f 423/1/6 424/1/6 429/1/6
f 429/1/6 424/1/6 430/1/6
f 433/2/6 434/2/6 436/2/6
f 436/2/6 434/2/6 437/2/6
f 431/2/6 432/2/6 438/2/6
f 438/2/6 432/2/6 439/2/6
f 435/2/6 436/2/6 442/2/6
f 442/2/6 436/2/6 443/2/6
f 440/2/6 441/2/6 445/2/6
f 445/2/6 441/2/6 446/2/6
f 443/2/6 444/2/6 447/2/6
f 447/2/6 444/2/6 448/2/6
f 449/1/6 450/1/6 455/1/6
f 455/1/6 450/1/6 456/1/6
f 451/1/6 452/1/6 457/1/6
f 457/1/6 452/1/6 458/1/6
f 453/1/6 454/1/6 459/1/6
f 459/1/6 454/1/6 460/1/6
f 461/2/6 462/2/6 463/2/6
f 463/2/6 462/2/6 464/2/6
f 465/2/6 466/2/6 467/2/6
f 467/2/6 466/2/6 468/2/6
f 469/2/6 470/2/6 471/2/6
f 471/2/6 470/2/6 472/2/6
f 473/2/6 474/2/6 475/2/6
f 475/2/6 474/2/6 476/2/6
f 477/2/6 478/2/6 479/2/6
f 479/2/6 478/2/6 480/2/6
f 481/2/6 482/2/6 484/2/6
f 484/2/6 482/2/6 485/2/6
f 483/2/6 484/2/6 487/2/6
f 485/2/6 486/2/6 487/2/6
f 484/2/6 485/2/6 487/2/6
f 487/2/6 486/2/6 488/2/6
f 488/2/6 486/2/6 489/2/6
f 489/2/6 486/2/6 490/2/6
f 488/2/6 489/2/6 491/2/6
f 491/2/6 489/2/6 492/2/6
